<?xml version="1.0" encoding="UTF-8"?>
<svg id="Ebene_1" data-name="Ebene 1" xmlns="http://www.w3.org/2000/svg" viewBox="0 0 320 320">
  <defs>
    <style>
      .cls-1 {
        stroke: #000;
        stroke-width: 2px;
      }

      .cls-1, .cls-2 {
        stroke-miterlimit: 10;
      }

      .cls-2 {
        fill: none;
        stroke: #ef9ac9;
        stroke-width: 8px;
      }
    </style>
  </defs>
  <rect class="cls-2" x="-442.35" y="-52.86" width="1112.93" height="854.88"/>
  <g>
    <g>
      <polygon class="cls-1" points="209.97 280.92 209.82 43.8 182.81 22.8 182.81 200.44 170.13 160.47 157.44 160.47 157.44 160.4 144.62 160.4 131.94 200.38 131.94 22.74 104.93 43.73 104.78 280.45 131.37 297.2 157.36 212.34 183.38 297.26 209.97 280.92"/>
      <polygon class="cls-1" points="231.57 53.92 261.21 75.64 261.21 107.51 282.93 139.59 286.58 135.53 286.58 93.91 314.6 115.23 314.6 151.16 303.23 164.15 314.6 185.46 314.6 226.27 286.99 242.71 286.99 198.66 279.68 191.55 261.41 214.29 261.41 257.73 231.77 274.58 231.77 200.69 263.03 162.12 231.57 115.63 231.57 53.92"/>
    </g>
    <polygon class="cls-1" points="89.22 56.75 5.4 122.39 5.4 157.58 34.92 135.44 34.92 240.52 62.14 257.97 62.14 114.58 89.22 91.99 89.22 56.75"/>
  </g>
</svg>